<svg width="56" height="56" viewBox="0 0 56 56" fill="none" xmlns="http://www.w3.org/2000/svg">
<rect x="0.727539" y="0.670319" width="55" height="54.9981" rx="17" fill="#53B175"/>
<path d="M38.4639 28.1694C38.4639 28.622 38.2904 29.0595 37.9659 29.3764C37.6489 29.7007 37.2113 29.8818 36.7585 29.8818H29.9367V36.7011C29.9367 37.1537 29.7556 37.5912 29.4311 37.908C29.1141 38.2248 28.684 38.4059 28.2312 38.4059C27.7784 38.4059 27.3408 38.2248 27.0238 37.908C26.6993 37.5912 26.5182 37.1537 26.5182 36.7011V29.8818H19.6964C19.2436 29.8818 18.806 29.7007 18.489 29.3764C18.1721 29.0595 17.991 28.622 17.991 28.1694C17.991 27.7168 18.1721 27.2868 18.489 26.9624C18.806 26.6456 19.2436 26.4646 19.6964 26.4646H26.5182V19.6453C26.5182 19.1927 26.6993 18.7552 27.0238 18.4383C27.3408 18.114 27.7784 17.9329 28.2312 17.9329C28.684 17.9329 29.1141 18.114 29.4311 18.4383C29.7556 18.7552 29.9367 19.1927 29.9367 19.6453V26.4646H36.7585C37.2113 26.4646 37.6489 26.6456 37.9659 26.9624C38.2904 27.2868 38.4639 27.7168 38.4639 28.1694Z" fill="#FCFCFC"/>
</svg>
