<svg width="364" height="67" viewBox="0 0 364 67" fill="none" xmlns="http://www.w3.org/2000/svg">
<rect width="364" height="67" rx="19" fill="#53B175"/>
<path d="M124.478 38.734C122.582 38.734 121.01 38.11 119.762 36.862C118.514 35.602 117.89 34.048 117.89 32.2C117.89 30.352 118.514 28.804 119.762 27.556C121.01 26.296 122.582 25.666 124.478 25.666C125.618 25.666 126.668 25.936 127.628 26.476C128.6 27.016 129.356 27.748 129.896 28.672L128.096 29.716C127.76 29.092 127.268 28.6 126.62 28.24C125.984 27.868 125.27 27.682 124.478 27.682C123.134 27.682 122.042 28.108 121.202 28.96C120.374 29.812 119.96 30.892 119.96 32.2C119.96 33.508 120.374 34.588 121.202 35.44C122.042 36.292 123.134 36.718 124.478 36.718C125.27 36.718 125.99 36.538 126.638 36.178C127.286 35.806 127.772 35.308 128.096 34.684L129.896 35.71C129.368 36.634 128.618 37.372 127.646 37.924C126.686 38.464 125.63 38.734 124.478 38.734ZM133.522 31.012C134.014 29.896 134.938 29.338 136.294 29.338V31.444C135.55 31.396 134.902 31.576 134.35 31.984C133.798 32.38 133.522 33.04 133.522 33.964V38.5H131.578V29.5H133.522V31.012ZM138.838 34.828C138.982 35.512 139.312 36.04 139.828 36.412C140.344 36.772 140.974 36.952 141.718 36.952C142.75 36.952 143.524 36.58 144.04 35.836L145.642 36.772C144.754 38.08 143.44 38.734 141.7 38.734C140.236 38.734 139.054 38.29 138.154 37.402C137.254 36.502 136.804 35.368 136.804 34C136.804 32.656 137.248 31.534 138.136 30.634C139.024 29.722 140.164 29.266 141.556 29.266C142.876 29.266 143.956 29.728 144.796 30.652C145.648 31.576 146.074 32.698 146.074 34.018C146.074 34.222 146.05 34.492 146.002 34.828H138.838ZM138.82 33.244H144.112C143.98 32.512 143.674 31.96 143.194 31.588C142.726 31.216 142.174 31.03 141.538 31.03C140.818 31.03 140.218 31.228 139.738 31.624C139.258 32.02 138.952 32.56 138.82 33.244ZM154.86 29.5H156.804V38.5H154.86V37.204C154.128 38.224 153.078 38.734 151.71 38.734C150.474 38.734 149.418 38.278 148.542 37.366C147.666 36.442 147.228 35.32 147.228 34C147.228 32.668 147.666 31.546 148.542 30.634C149.418 29.722 150.474 29.266 151.71 29.266C153.078 29.266 154.128 29.77 154.86 30.778V29.5ZM149.982 36.07C150.522 36.61 151.2 36.88 152.016 36.88C152.832 36.88 153.51 36.61 154.05 36.07C154.59 35.518 154.86 34.828 154.86 34C154.86 33.172 154.59 32.488 154.05 31.948C153.51 31.396 152.832 31.12 152.016 31.12C151.2 31.12 150.522 31.396 149.982 31.948C149.442 32.488 149.172 33.172 149.172 34C149.172 34.828 149.442 35.518 149.982 36.07ZM164.092 31.372H161.86V35.692C161.86 36.064 161.944 36.334 162.112 36.502C162.28 36.658 162.526 36.748 162.85 36.772C163.186 36.784 163.6 36.778 164.092 36.754V38.5C162.604 38.68 161.536 38.554 160.888 38.122C160.24 37.678 159.916 36.868 159.916 35.692V31.372H158.26V29.5H159.916V27.556L161.86 26.98V29.5H164.092V31.372ZM167.016 34.828C167.16 35.512 167.49 36.04 168.006 36.412C168.522 36.772 169.152 36.952 169.896 36.952C170.928 36.952 171.702 36.58 172.218 35.836L173.82 36.772C172.932 38.08 171.618 38.734 169.878 38.734C168.414 38.734 167.232 38.29 166.332 37.402C165.432 36.502 164.982 35.368 164.982 34C164.982 32.656 165.426 31.534 166.314 30.634C167.202 29.722 168.342 29.266 169.734 29.266C171.054 29.266 172.134 29.728 172.974 30.652C173.826 31.576 174.252 32.698 174.252 34.018C174.252 34.222 174.228 34.492 174.18 34.828H167.016ZM166.998 33.244H172.29C172.158 32.512 171.852 31.96 171.372 31.588C170.904 31.216 170.352 31.03 169.716 31.03C168.996 31.03 168.396 31.228 167.916 31.624C167.436 32.02 167.13 32.56 166.998 33.244ZM188.149 25.9H190.219V38.5H188.599L182.659 29.95V38.5H180.589V25.9H182.209L188.149 34.45V25.9ZM194.139 34.828C194.283 35.512 194.613 36.04 195.129 36.412C195.645 36.772 196.275 36.952 197.019 36.952C198.051 36.952 198.825 36.58 199.341 35.836L200.943 36.772C200.055 38.08 198.741 38.734 197.001 38.734C195.537 38.734 194.355 38.29 193.455 37.402C192.555 36.502 192.105 35.368 192.105 34C192.105 32.656 192.549 31.534 193.437 30.634C194.325 29.722 195.465 29.266 196.857 29.266C198.177 29.266 199.257 29.728 200.097 30.652C200.949 31.576 201.375 32.698 201.375 34.018C201.375 34.222 201.351 34.492 201.303 34.828H194.139ZM194.121 33.244H199.413C199.281 32.512 198.975 31.96 198.495 31.588C198.027 31.216 197.475 31.03 196.839 31.03C196.119 31.03 195.519 31.228 195.039 31.624C194.559 32.02 194.253 32.56 194.121 33.244ZM213.102 29.5H215.154L212.328 38.5H210.42L208.548 32.434L206.658 38.5H204.75L201.924 29.5H203.976L205.722 35.71L207.612 29.5H209.466L211.338 35.71L213.102 29.5ZM223.282 36.52H228.412V38.5H221.212V25.9H223.282V36.52ZM231.658 27.79C231.418 28.03 231.13 28.15 230.794 28.15C230.458 28.15 230.164 28.03 229.912 27.79C229.672 27.538 229.552 27.244 229.552 26.908C229.552 26.572 229.672 26.284 229.912 26.044C230.152 25.792 230.446 25.666 230.794 25.666C231.142 25.666 231.436 25.792 231.676 26.044C231.916 26.284 232.036 26.572 232.036 26.908C232.036 27.244 231.91 27.538 231.658 27.79ZM229.822 38.5V29.5H231.766V38.5H229.822ZM235.716 31.984C235.716 32.284 235.878 32.524 236.202 32.704C236.538 32.872 236.94 33.022 237.408 33.154C237.888 33.274 238.368 33.418 238.848 33.586C239.328 33.754 239.73 34.042 240.054 34.45C240.39 34.846 240.558 35.35 240.558 35.962C240.558 36.826 240.222 37.504 239.55 37.996C238.89 38.488 238.056 38.734 237.048 38.734C236.16 38.734 235.398 38.548 234.762 38.176C234.126 37.804 233.664 37.288 233.376 36.628L235.05 35.656C235.362 36.52 236.028 36.952 237.048 36.952C238.068 36.952 238.578 36.616 238.578 35.944C238.578 35.656 238.41 35.422 238.074 35.242C237.75 35.062 237.348 34.912 236.868 34.792C236.4 34.66 235.926 34.51 235.446 34.342C234.966 34.174 234.558 33.898 234.222 33.514C233.898 33.118 233.736 32.62 233.736 32.02C233.736 31.192 234.048 30.526 234.672 30.022C235.308 29.518 236.094 29.266 237.03 29.266C237.774 29.266 238.434 29.434 239.01 29.77C239.598 30.094 240.048 30.55 240.36 31.138L238.722 32.056C238.41 31.372 237.846 31.03 237.03 31.03C236.658 31.03 236.346 31.114 236.094 31.282C235.842 31.438 235.716 31.672 235.716 31.984ZM246.938 31.372H244.706V35.692C244.706 36.064 244.79 36.334 244.958 36.502C245.126 36.658 245.372 36.748 245.696 36.772C246.032 36.784 246.446 36.778 246.938 36.754V38.5C245.45 38.68 244.382 38.554 243.734 38.122C243.086 37.678 242.762 36.868 242.762 35.692V31.372H241.106V29.5H242.762V27.556L244.706 26.98V29.5H246.938V31.372Z" fill="#FFF9FF"/>
</svg>
