<svg width="20" height="16" viewBox="0 0 20 16" fill="none" xmlns="http://www.w3.org/2000/svg">
<path d="M19.0196 4.49093L19.0193 4.49128L9.09701 14.4676C8.72661 14.8197 8.23981 15.0245 7.74674 15.0245C7.25016 15.0245 6.76629 14.8172 6.42172 14.4715L1.4478 9.48121C1.11057 9.14287 0.917316 8.66 0.917316 8.14974C0.917316 7.65964 1.11753 7.19253 1.46923 6.81841C1.83218 6.47525 2.29644 6.28451 2.80192 6.26525C3.29818 6.26718 3.75945 6.45505 4.12325 6.80093L7.42802 10.1166L7.74674 10.4363L8.06546 10.1166L16.3441 1.81065C16.7079 1.46477 17.1692 1.2769 17.6655 1.27497C18.1735 1.29433 18.6367 1.48663 18.9983 1.8494C19.3461 2.19837 19.5501 2.66427 19.5501 3.15946C19.5501 3.66972 19.3568 4.15259 19.0196 4.49093Z" fill="#53B175" stroke="#FCFCFC" stroke-width="0.9"/>
</svg>
