<svg width="38" height="37" viewBox="0 0 38 37" fill="none" xmlns="http://www.w3.org/2000/svg">
<rect x="0.727539" width="37" height="37" rx="8" fill="#E2E2E2"/>
<path fill-rule="evenodd" clip-rule="evenodd" d="M29.9298 12.9008C29.9298 13.4383 29.7183 13.9433 29.355 14.2945L17.8008 25.4872C17.3949 25.8582 16.8643 26.0717 16.3313 26.0717C15.7931 26.0717 15.2669 25.8547 14.8926 25.4929L9.10007 19.8937C8.73672 19.5425 8.52527 19.0375 8.52527 18.5C8.52527 17.9913 8.74019 17.5023 9.12505 17.1065C9.51977 16.7483 10.0238 16.5485 10.5752 16.5275C11.113 16.5303 11.6125 16.7261 12.0085 17.0882L16.3313 21.2667L26.4465 11.489C26.8425 11.1269 27.3421 10.9311 27.8799 10.9283C28.435 10.9494 28.9374 11.1515 29.3301 11.5311C29.7093 11.8976 29.9298 12.3849 29.9298 12.9008Z" fill="#53B175"/>
</svg>
