<svg width="24" height="25" viewBox="0 0 24 25" fill="none" xmlns="http://www.w3.org/2000/svg">
<path d="M23.8624 12.3509C23.8624 11.3616 23.7843 10.6397 23.6152 9.89099H12.6201V14.3563H19.074C18.9439 15.466 18.2413 17.1372 16.6798 18.2602L16.6579 18.4097L20.1344 21.1768L20.3752 21.2015C22.5872 19.1025 23.8624 16.0141 23.8624 12.3509Z" fill="white"/>
<path d="M12.6202 24.116C15.782 24.116 18.4364 23.0464 20.3753 21.2014L16.6799 18.2601C15.691 18.9687 14.3638 19.4633 12.6202 19.4633C9.52337 19.4633 6.89498 17.3644 5.95803 14.4633L5.8207 14.4752L2.20584 17.3497L2.15857 17.4847C4.08432 21.4153 8.03995 24.116 12.6202 24.116Z" fill="white"/>
<path d="M5.958 14.4632C5.71078 13.7146 5.56771 12.9123 5.56771 12.0835C5.56771 11.2545 5.71078 10.4524 5.945 9.70371L5.93845 9.54426L2.27829 6.62366L2.15854 6.68218C1.36485 8.31327 0.909424 10.1449 0.909424 12.0835C0.909424 14.022 1.36485 15.8536 2.15854 17.4847L5.958 14.4632Z" fill="white"/>
<path d="M12.6206 4.70367C14.8195 4.70367 16.3029 5.67963 17.1487 6.49522L20.4537 3.17959C18.4239 1.24103 15.7824 0.0511475 12.6206 0.0511475C8.04032 0.0511475 4.08468 2.75175 2.15894 6.68232L5.94539 9.70385C6.89535 6.80269 9.52374 4.70367 12.6206 4.70367Z" fill="white"/>
</svg>
